# xmcd CD database file
#
# Track frame offsets:
#	182
#	14271
#	25259
#	34866
#	48113
#	59671
#	71182
#	81197
#	93406
#	105749
#	118538
#	129615
#	139943
#	149950
#	162164
#	174197
#	186797
#	199349
#
# Disc length: 2764 seconds
#
# Revision: 3
# Processed by: cddbd v1.5.2PL0 Copyright (c) Steve Scherf et al.
# Submitted via: CDex 1.70beta2
#
DISCID=090aca12
DTITLE=Various Artist - Country Boogie -  (139 -1947) -  CD2
DYEAR=2002
DGENRE=Country Classics
TTITLE0=Arthur Smith - Fingers on Fire  - (1946)
TTITLE1=Jack Guthrie - Oakie Boogie   - (1946)
TTITLE2=Al Petty - Al's Steel Guitar Wobble  - (1947) 
TTITLE3=Shelton Brothers - Mac Donald Streamlined Farm   - (1947)
TTITLE4=Dusty Taylor - Boogie Blues   - (1947)
TTITLE5=Johnnie Lee Wills - Square Dance Boogie   - (1947)
TTITLE6=Milo Twins - Baby Buggy Boogie   - (1947)
TTITLE7=Delmore Brothers - Mobile Boogie   - (1947)
TTITLE8=Hank Williams - Fly Trouble   - (1947)
TTITLE9=Tommy Sargent - Sargent's Stomp   - (1946)
TTITLE10=Pee Wee King - 49 Woman   - (1947)
TTITLE11=Big Jim De Noone - E Ramble   - (1947)
TTITLE12=Johnnie Tyler - Old MC Donald's Boogie  - (1947) 
TTITLE13=Delmore Brothers - Down Home Boogie   - (1947) 
TTITLE14=Al Dexter - Saturday Night Boogie  - (1947)  
TTITLE15=Merle Travis - Crazy Boogie   - (1947) 
TTITLE16=Wayne Raney - Jack and Jill Boogie   - (1947) 
TTITLE17=Maddox Bros and Rose - Guitar Stomp   - (1947) 
EXTD=YEAR: 2002
EXTT0=
EXTT1=
EXTT2=
EXTT3=
EXTT4=
EXTT5=
EXTT6=
EXTT7=
EXTT8=
EXTT9=
EXTT10=
EXTT11=
EXTT12=
EXTT13=
EXTT14=
EXTT15=
EXTT16=
EXTT17=
PLAYORDER=
